<svg viewBox="0 0 36 36" xmlns="http://www.w3.org/2000/svg">
<linearGradient id="gradient" x1="-277.375" x2="-277.375" y1="406.6018" y2="407.5726">
    <stop offset="0" stop-color="#0062E0"></stop>
    <stop offset="1" stop-color="#19AFFF"></stop>
</linearGradient>
<path fill="url(#gradient)" d="M15 35.8C6.5 34.3 0 26.9 0 18 0 8.1 8.1 0 18 0s18 8.1 18 18c0 8.9-6.5 16.3-15 17.8l-1-.8h-4l-1 .8z"></path>
<path fill="#fff" d="M25 23l.8-5H21v-3.5c0-1.4.5-2.5 2.7-2.5H26V7.4c-1.3-.2-2.7-.4-4-.4-4.1 0-7 2.5-7 7v4h-4.5v5H15v12.7c1 .2 2 .3 3 .3s2-.1 3-.3V23h4z"></path>
</svg>